<mxfile host="app.diagrams.net" modified="2024-03-26T11:32:06.365Z" agent="Mozilla/5.0 (Windows NT 10.0; Win64; x64) AppleWebKit/537.36 (KHTML, like Gecko) Chrome/122.0.0.0 Safari/537.36 Edg/122.0.0.0" etag="FTAG8h3cpbxBlLPGXD00" version="24.0.7" type="device">
  <diagram name="Страница — 1" id="1PxUFpt8f0wCfoiGBw6Y">
    <mxGraphModel dx="722" dy="789" grid="1" gridSize="10" guides="1" tooltips="1" connect="1" arrows="1" fold="1" page="1" pageScale="1" pageWidth="827" pageHeight="1169" math="0" shadow="0">
      <root>
        <mxCell id="0" />
        <mxCell id="1" parent="0" />
        <mxCell id="lwBPACdgoQQIhiUgGmdA-1" value="" style="strokeWidth=2;html=1;shape=mxgraph.flowchart.start_2;whiteSpace=wrap;fillColor=#000000;" vertex="1" parent="1">
          <mxGeometry x="1620" y="80" width="20" height="20" as="geometry" />
        </mxCell>
        <mxCell id="lwBPACdgoQQIhiUgGmdA-4" value="Просмотр главной страницы&amp;nbsp;" style="rounded=1;whiteSpace=wrap;html=1;" vertex="1" parent="1">
          <mxGeometry x="1570" y="170" width="120" height="50" as="geometry" />
        </mxCell>
        <mxCell id="lwBPACdgoQQIhiUgGmdA-7" value="" style="endArrow=classic;html=1;rounded=0;exitX=0.5;exitY=1;exitDx=0;exitDy=0;exitPerimeter=0;" edge="1" parent="1" source="lwBPACdgoQQIhiUgGmdA-1" target="lwBPACdgoQQIhiUgGmdA-4">
          <mxGeometry width="50" height="50" relative="1" as="geometry">
            <mxPoint x="1560" y="280" as="sourcePoint" />
            <mxPoint x="1610" y="230" as="targetPoint" />
          </mxGeometry>
        </mxCell>
        <mxCell id="lwBPACdgoQQIhiUgGmdA-8" value="" style="ellipse;html=1;shape=endState;fillColor=#000000;strokeColor=#ff0000;" vertex="1" parent="1">
          <mxGeometry x="1400" y="180" width="30" height="30" as="geometry" />
        </mxCell>
        <mxCell id="lwBPACdgoQQIhiUgGmdA-9" value="" style="endArrow=classic;html=1;rounded=0;entryX=1;entryY=0.5;entryDx=0;entryDy=0;" edge="1" parent="1" source="lwBPACdgoQQIhiUgGmdA-4" target="lwBPACdgoQQIhiUgGmdA-8">
          <mxGeometry width="50" height="50" relative="1" as="geometry">
            <mxPoint x="1350" y="280" as="sourcePoint" />
            <mxPoint x="1400" y="230" as="targetPoint" />
          </mxGeometry>
        </mxCell>
        <mxCell id="lwBPACdgoQQIhiUgGmdA-10" value="Зарегистрироваться" style="rounded=1;whiteSpace=wrap;html=1;" vertex="1" parent="1">
          <mxGeometry x="1470" y="320" width="120" height="50" as="geometry" />
        </mxCell>
        <mxCell id="lwBPACdgoQQIhiUgGmdA-11" value="Войти в ЛК" style="rounded=1;whiteSpace=wrap;html=1;" vertex="1" parent="1">
          <mxGeometry x="1710" y="320" width="120" height="50" as="geometry" />
        </mxCell>
        <mxCell id="lwBPACdgoQQIhiUgGmdA-12" value="" style="endArrow=classic;html=1;rounded=0;exitX=0.25;exitY=1;exitDx=0;exitDy=0;entryX=0.539;entryY=-0.028;entryDx=0;entryDy=0;entryPerimeter=0;" edge="1" parent="1" source="lwBPACdgoQQIhiUgGmdA-4" target="lwBPACdgoQQIhiUgGmdA-10">
          <mxGeometry width="50" height="50" relative="1" as="geometry">
            <mxPoint x="1650" y="300" as="sourcePoint" />
            <mxPoint x="1700" y="250" as="targetPoint" />
          </mxGeometry>
        </mxCell>
        <mxCell id="lwBPACdgoQQIhiUgGmdA-13" value="" style="endArrow=classic;html=1;rounded=0;exitX=0.692;exitY=1.017;exitDx=0;exitDy=0;exitPerimeter=0;entryX=0.181;entryY=-0.086;entryDx=0;entryDy=0;entryPerimeter=0;" edge="1" parent="1" source="lwBPACdgoQQIhiUgGmdA-4" target="lwBPACdgoQQIhiUgGmdA-11">
          <mxGeometry width="50" height="50" relative="1" as="geometry">
            <mxPoint x="1650" y="300" as="sourcePoint" />
            <mxPoint x="1700" y="250" as="targetPoint" />
          </mxGeometry>
        </mxCell>
        <mxCell id="lwBPACdgoQQIhiUgGmdA-14" value="Проверка входных данных" style="rounded=1;whiteSpace=wrap;html=1;" vertex="1" parent="1">
          <mxGeometry x="1600" y="480" width="120" height="50" as="geometry" />
        </mxCell>
        <mxCell id="lwBPACdgoQQIhiUgGmdA-15" value="" style="endArrow=classic;html=1;rounded=0;exitX=0.676;exitY=1.01;exitDx=0;exitDy=0;exitPerimeter=0;entryX=0.421;entryY=0.041;entryDx=0;entryDy=0;entryPerimeter=0;" edge="1" parent="1" source="lwBPACdgoQQIhiUgGmdA-10" target="lwBPACdgoQQIhiUgGmdA-14">
          <mxGeometry width="50" height="50" relative="1" as="geometry">
            <mxPoint x="1580" y="420" as="sourcePoint" />
            <mxPoint x="1630" y="370" as="targetPoint" />
          </mxGeometry>
        </mxCell>
        <mxCell id="lwBPACdgoQQIhiUgGmdA-16" value="ввод данных" style="edgeLabel;html=1;align=center;verticalAlign=middle;resizable=0;points=[];" vertex="1" connectable="0" parent="lwBPACdgoQQIhiUgGmdA-15">
          <mxGeometry x="-0.1528" y="-1" relative="1" as="geometry">
            <mxPoint as="offset" />
          </mxGeometry>
        </mxCell>
        <mxCell id="lwBPACdgoQQIhiUgGmdA-17" value="" style="endArrow=classic;html=1;rounded=0;exitX=0;exitY=0.75;exitDx=0;exitDy=0;entryX=0;entryY=0.5;entryDx=0;entryDy=0;" edge="1" parent="1" source="lwBPACdgoQQIhiUgGmdA-14" target="lwBPACdgoQQIhiUgGmdA-10">
          <mxGeometry width="50" height="50" relative="1" as="geometry">
            <mxPoint x="1560" y="460" as="sourcePoint" />
            <mxPoint x="1610" y="410" as="targetPoint" />
            <Array as="points">
              <mxPoint x="1420" y="518" />
              <mxPoint x="1420" y="345" />
            </Array>
          </mxGeometry>
        </mxCell>
        <mxCell id="lwBPACdgoQQIhiUgGmdA-18" value="Некорректный ввод&amp;nbsp;&lt;div&gt;данных пользователя&lt;/div&gt;" style="edgeLabel;html=1;align=center;verticalAlign=middle;resizable=0;points=[];" vertex="1" connectable="0" parent="lwBPACdgoQQIhiUgGmdA-17">
          <mxGeometry x="0.2135" y="-2" relative="1" as="geometry">
            <mxPoint as="offset" />
          </mxGeometry>
        </mxCell>
        <mxCell id="lwBPACdgoQQIhiUgGmdA-19" value="" style="endArrow=classic;html=1;rounded=0;entryX=0.75;entryY=0;entryDx=0;entryDy=0;exitX=0.383;exitY=0.972;exitDx=0;exitDy=0;exitPerimeter=0;" edge="1" parent="1" source="lwBPACdgoQQIhiUgGmdA-11" target="lwBPACdgoQQIhiUgGmdA-14">
          <mxGeometry width="50" height="50" relative="1" as="geometry">
            <mxPoint x="1660" y="490" as="sourcePoint" />
            <mxPoint x="1710" y="440" as="targetPoint" />
          </mxGeometry>
        </mxCell>
        <mxCell id="lwBPACdgoQQIhiUgGmdA-20" value="ввод логина и пароля&amp;nbsp;&lt;div&gt;для авторизации пользователя&lt;/div&gt;" style="edgeLabel;html=1;align=center;verticalAlign=middle;resizable=0;points=[];" vertex="1" connectable="0" parent="lwBPACdgoQQIhiUgGmdA-19">
          <mxGeometry x="0.0676" y="1" relative="1" as="geometry">
            <mxPoint as="offset" />
          </mxGeometry>
        </mxCell>
        <mxCell id="lwBPACdgoQQIhiUgGmdA-21" value="" style="endArrow=classic;html=1;rounded=0;entryX=1;entryY=0.5;entryDx=0;entryDy=0;exitX=0.995;exitY=0.632;exitDx=0;exitDy=0;exitPerimeter=0;" edge="1" parent="1" source="lwBPACdgoQQIhiUgGmdA-14" target="lwBPACdgoQQIhiUgGmdA-11">
          <mxGeometry width="50" height="50" relative="1" as="geometry">
            <mxPoint x="1630" y="490" as="sourcePoint" />
            <mxPoint x="1680" y="440" as="targetPoint" />
            <Array as="points">
              <mxPoint x="1880" y="512" />
              <mxPoint x="1880" y="345" />
            </Array>
          </mxGeometry>
        </mxCell>
        <mxCell id="lwBPACdgoQQIhiUgGmdA-22" value="неверный логин&lt;br&gt;&lt;font&gt;или пароль&lt;/font&gt;" style="edgeLabel;html=1;align=center;verticalAlign=middle;resizable=0;points=[];" vertex="1" connectable="0" parent="lwBPACdgoQQIhiUgGmdA-21">
          <mxGeometry x="0.2849" relative="1" as="geometry">
            <mxPoint as="offset" />
          </mxGeometry>
        </mxCell>
        <mxCell id="lwBPACdgoQQIhiUgGmdA-23" value="Просмотр главной страницы авторизированного пользователя" style="rounded=1;whiteSpace=wrap;html=1;" vertex="1" parent="1">
          <mxGeometry x="1585" y="592.5" width="150" height="70" as="geometry" />
        </mxCell>
        <mxCell id="lwBPACdgoQQIhiUgGmdA-24" value="" style="endArrow=classic;html=1;rounded=0;entryX=0.5;entryY=0;entryDx=0;entryDy=0;exitX=0.5;exitY=1;exitDx=0;exitDy=0;" edge="1" parent="1" source="lwBPACdgoQQIhiUgGmdA-14" target="lwBPACdgoQQIhiUgGmdA-23">
          <mxGeometry width="50" height="50" relative="1" as="geometry">
            <mxPoint x="1630" y="480" as="sourcePoint" />
            <mxPoint x="1680" y="430" as="targetPoint" />
          </mxGeometry>
        </mxCell>
        <mxCell id="lwBPACdgoQQIhiUgGmdA-75" value="данные корректны" style="edgeLabel;html=1;align=center;verticalAlign=middle;resizable=0;points=[];" vertex="1" connectable="0" parent="lwBPACdgoQQIhiUgGmdA-24">
          <mxGeometry x="-0.0417" relative="1" as="geometry">
            <mxPoint as="offset" />
          </mxGeometry>
        </mxCell>
        <mxCell id="lwBPACdgoQQIhiUgGmdA-26" value="" style="ellipse;html=1;shape=endState;fillColor=#000000;strokeColor=#ff0000;" vertex="1" parent="1">
          <mxGeometry x="1430" y="620" width="30" height="30" as="geometry" />
        </mxCell>
        <mxCell id="lwBPACdgoQQIhiUgGmdA-27" value="" style="endArrow=classic;html=1;rounded=0;entryX=1;entryY=0.5;entryDx=0;entryDy=0;exitX=0.012;exitY=0.616;exitDx=0;exitDy=0;exitPerimeter=0;" edge="1" parent="1" target="lwBPACdgoQQIhiUgGmdA-26" source="lwBPACdgoQQIhiUgGmdA-23">
          <mxGeometry width="50" height="50" relative="1" as="geometry">
            <mxPoint x="1580" y="635" as="sourcePoint" />
            <mxPoint x="1430" y="670" as="targetPoint" />
          </mxGeometry>
        </mxCell>
        <mxCell id="lwBPACdgoQQIhiUgGmdA-31" value="Manage user account" style="rounded=1;whiteSpace=wrap;html=1;" vertex="1" parent="1">
          <mxGeometry x="1430" y="760" width="130" height="50" as="geometry" />
        </mxCell>
        <mxCell id="lwBPACdgoQQIhiUgGmdA-34" value="" style="endArrow=classic;html=1;rounded=0;exitX=0.227;exitY=1;exitDx=0;exitDy=0;entryX=0.688;entryY=0.047;entryDx=0;entryDy=0;entryPerimeter=0;exitPerimeter=0;" edge="1" parent="1" source="lwBPACdgoQQIhiUgGmdA-23" target="lwBPACdgoQQIhiUgGmdA-31">
          <mxGeometry width="50" height="50" relative="1" as="geometry">
            <mxPoint x="1670" y="760" as="sourcePoint" />
            <mxPoint x="1720" y="710" as="targetPoint" />
            <Array as="points">
              <mxPoint x="1619" y="720" />
              <mxPoint x="1520" y="720" />
            </Array>
          </mxGeometry>
        </mxCell>
        <mxCell id="lwBPACdgoQQIhiUgGmdA-35" value="зайти в свой ЛК&amp;nbsp;" style="edgeLabel;html=1;align=center;verticalAlign=middle;resizable=0;points=[];" vertex="1" connectable="0" parent="lwBPACdgoQQIhiUgGmdA-34">
          <mxGeometry x="0.2309" y="-1" relative="1" as="geometry">
            <mxPoint as="offset" />
          </mxGeometry>
        </mxCell>
        <mxCell id="lwBPACdgoQQIhiUgGmdA-37" style="edgeStyle=orthogonalEdgeStyle;rounded=0;orthogonalLoop=1;jettySize=auto;html=1;exitX=0.5;exitY=1;exitDx=0;exitDy=0;entryX=0.5;entryY=0;entryDx=0;entryDy=0;" edge="1" parent="1" source="lwBPACdgoQQIhiUgGmdA-39" target="lwBPACdgoQQIhiUgGmdA-42">
          <mxGeometry relative="1" as="geometry" />
        </mxCell>
        <mxCell id="lwBPACdgoQQIhiUgGmdA-53" value="&lt;font&gt;ввод характеристик&amp;nbsp;&lt;/font&gt;&lt;div&gt;номера&lt;/div&gt;" style="edgeLabel;html=1;align=center;verticalAlign=middle;resizable=0;points=[];" vertex="1" connectable="0" parent="lwBPACdgoQQIhiUgGmdA-37">
          <mxGeometry x="0.0223" y="2" relative="1" as="geometry">
            <mxPoint as="offset" />
          </mxGeometry>
        </mxCell>
        <mxCell id="lwBPACdgoQQIhiUgGmdA-39" value="Поиск номера" style="rounded=1;whiteSpace=wrap;html=1;" vertex="1" parent="1">
          <mxGeometry x="1740" y="732" width="120" height="40" as="geometry" />
        </mxCell>
        <mxCell id="lwBPACdgoQQIhiUgGmdA-40" style="edgeStyle=orthogonalEdgeStyle;rounded=0;orthogonalLoop=1;jettySize=auto;html=1;entryX=0.5;entryY=0;entryDx=0;entryDy=0;" edge="1" parent="1" source="lwBPACdgoQQIhiUgGmdA-42" target="lwBPACdgoQQIhiUgGmdA-46">
          <mxGeometry relative="1" as="geometry" />
        </mxCell>
        <mxCell id="lwBPACdgoQQIhiUgGmdA-42" value="Verify the characteristics" style="rounded=1;whiteSpace=wrap;html=1;" vertex="1" parent="1">
          <mxGeometry x="1740" y="852" width="120" height="40" as="geometry" />
        </mxCell>
        <mxCell id="lwBPACdgoQQIhiUgGmdA-43" style="edgeStyle=orthogonalEdgeStyle;rounded=0;orthogonalLoop=1;jettySize=auto;html=1;entryX=0;entryY=0.75;entryDx=0;entryDy=0;exitX=0;exitY=0.5;exitDx=0;exitDy=0;" edge="1" parent="1" source="lwBPACdgoQQIhiUgGmdA-42" target="lwBPACdgoQQIhiUgGmdA-39">
          <mxGeometry relative="1" as="geometry">
            <mxPoint x="1740" y="672" as="targetPoint" />
            <mxPoint x="1740" y="762" as="sourcePoint" />
            <Array as="points">
              <mxPoint x="1720" y="872" />
              <mxPoint x="1720" y="762" />
            </Array>
          </mxGeometry>
        </mxCell>
        <mxCell id="lwBPACdgoQQIhiUgGmdA-44" value="таких доступных&lt;div&gt;&amp;nbsp;номеров нет&lt;/div&gt;" style="edgeLabel;html=1;align=center;verticalAlign=middle;resizable=0;points=[];" vertex="1" connectable="0" parent="lwBPACdgoQQIhiUgGmdA-43">
          <mxGeometry relative="1" as="geometry">
            <mxPoint x="-40" y="-5" as="offset" />
          </mxGeometry>
        </mxCell>
        <mxCell id="lwBPACdgoQQIhiUgGmdA-46" value="Показать доступные&amp;nbsp; варианты&amp;nbsp;" style="rounded=1;whiteSpace=wrap;html=1;" vertex="1" parent="1">
          <mxGeometry x="1740" y="990" width="120" height="40" as="geometry" />
        </mxCell>
        <mxCell id="lwBPACdgoQQIhiUgGmdA-51" value="" style="endArrow=classic;html=1;rounded=0;" edge="1" parent="1" source="lwBPACdgoQQIhiUgGmdA-23">
          <mxGeometry width="50" height="50" relative="1" as="geometry">
            <mxPoint x="1790" y="750" as="sourcePoint" />
            <mxPoint x="1770" y="730" as="targetPoint" />
          </mxGeometry>
        </mxCell>
        <mxCell id="lwBPACdgoQQIhiUgGmdA-86" value="переход к поиску" style="edgeLabel;html=1;align=center;verticalAlign=middle;resizable=0;points=[];" vertex="1" connectable="0" parent="lwBPACdgoQQIhiUgGmdA-51">
          <mxGeometry x="-0.2545" y="-1" relative="1" as="geometry">
            <mxPoint as="offset" />
          </mxGeometry>
        </mxCell>
        <mxCell id="lwBPACdgoQQIhiUgGmdA-54" value="&lt;span style=&quot;font-size: 11px; background-color: rgb(255, 255, 255);&quot;&gt;есть желаемые номера&lt;/span&gt;" style="text;html=1;align=center;verticalAlign=middle;resizable=0;points=[];autosize=1;strokeColor=none;fillColor=none;" vertex="1" parent="1">
          <mxGeometry x="1730" y="918" width="140" height="30" as="geometry" />
        </mxCell>
        <mxCell id="lwBPACdgoQQIhiUgGmdA-55" style="edgeStyle=orthogonalEdgeStyle;rounded=0;orthogonalLoop=1;jettySize=auto;html=1;entryX=0.5;entryY=1;entryDx=0;entryDy=0;" edge="1" parent="1" source="lwBPACdgoQQIhiUgGmdA-57" target="lwBPACdgoQQIhiUgGmdA-62">
          <mxGeometry relative="1" as="geometry" />
        </mxCell>
        <mxCell id="lwBPACdgoQQIhiUgGmdA-57" value="Забронировать" style="rounded=1;whiteSpace=wrap;html=1;" vertex="1" parent="1">
          <mxGeometry x="2084" y="900" width="120" height="40" as="geometry" />
        </mxCell>
        <mxCell id="lwBPACdgoQQIhiUgGmdA-60" style="edgeStyle=orthogonalEdgeStyle;rounded=0;orthogonalLoop=1;jettySize=auto;html=1;" edge="1" parent="1" source="lwBPACdgoQQIhiUgGmdA-62">
          <mxGeometry relative="1" as="geometry">
            <mxPoint x="2144" y="730" as="targetPoint" />
          </mxGeometry>
        </mxCell>
        <mxCell id="lwBPACdgoQQIhiUgGmdA-74" value="валюта выбрана" style="edgeLabel;html=1;align=center;verticalAlign=middle;resizable=0;points=[];" vertex="1" connectable="0" parent="lwBPACdgoQQIhiUgGmdA-60">
          <mxGeometry x="-0.0447" relative="1" as="geometry">
            <mxPoint as="offset" />
          </mxGeometry>
        </mxCell>
        <mxCell id="lwBPACdgoQQIhiUgGmdA-62" value="выбрать валюту для оплаты" style="rounded=1;whiteSpace=wrap;html=1;" vertex="1" parent="1">
          <mxGeometry x="2084" y="810" width="120" height="40" as="geometry" />
        </mxCell>
        <mxCell id="lwBPACdgoQQIhiUgGmdA-63" value="подтвердить бронирование" style="rounded=1;whiteSpace=wrap;html=1;" vertex="1" parent="1">
          <mxGeometry x="2084" y="527" width="120" height="40" as="geometry" />
        </mxCell>
        <mxCell id="lwBPACdgoQQIhiUgGmdA-64" value="просмотреть отзывы на номер" style="rounded=1;whiteSpace=wrap;html=1;" vertex="1" parent="1">
          <mxGeometry x="1970" y="990" width="120" height="40" as="geometry" />
        </mxCell>
        <mxCell id="lwBPACdgoQQIhiUgGmdA-65" value="" style="endArrow=classic;html=1;rounded=0;exitX=1;exitY=0.5;exitDx=0;exitDy=0;" edge="1" parent="1" source="lwBPACdgoQQIhiUgGmdA-46" target="lwBPACdgoQQIhiUgGmdA-64">
          <mxGeometry width="50" height="50" relative="1" as="geometry">
            <mxPoint x="2100" y="950" as="sourcePoint" />
            <mxPoint x="2150" y="900" as="targetPoint" />
          </mxGeometry>
        </mxCell>
        <mxCell id="lwBPACdgoQQIhiUgGmdA-87" value="выбор номера" style="edgeLabel;html=1;align=center;verticalAlign=middle;resizable=0;points=[];" vertex="1" connectable="0" parent="lwBPACdgoQQIhiUgGmdA-65">
          <mxGeometry x="-0.173" y="3" relative="1" as="geometry">
            <mxPoint as="offset" />
          </mxGeometry>
        </mxCell>
        <mxCell id="lwBPACdgoQQIhiUgGmdA-66" value="" style="endArrow=classic;html=1;rounded=0;exitX=1;exitY=0.5;exitDx=0;exitDy=0;" edge="1" parent="1" source="lwBPACdgoQQIhiUgGmdA-64">
          <mxGeometry width="50" height="50" relative="1" as="geometry">
            <mxPoint x="2140" y="1010" as="sourcePoint" />
            <mxPoint x="2140" y="940" as="targetPoint" />
            <Array as="points">
              <mxPoint x="2140" y="1010" />
            </Array>
          </mxGeometry>
        </mxCell>
        <mxCell id="lwBPACdgoQQIhiUgGmdA-67" value="номер подходит" style="edgeLabel;html=1;align=center;verticalAlign=middle;resizable=0;points=[];" vertex="1" connectable="0" parent="lwBPACdgoQQIhiUgGmdA-66">
          <mxGeometry x="0.2836" y="-1" relative="1" as="geometry">
            <mxPoint as="offset" />
          </mxGeometry>
        </mxCell>
        <mxCell id="lwBPACdgoQQIhiUgGmdA-68" value="" style="endArrow=classic;html=1;rounded=0;exitX=0.5;exitY=1;exitDx=0;exitDy=0;entryX=0.38;entryY=0.983;entryDx=0;entryDy=0;entryPerimeter=0;" edge="1" parent="1" source="lwBPACdgoQQIhiUgGmdA-64" target="lwBPACdgoQQIhiUgGmdA-46">
          <mxGeometry width="50" height="50" relative="1" as="geometry">
            <mxPoint x="2100" y="880" as="sourcePoint" />
            <mxPoint x="2150" y="830" as="targetPoint" />
            <Array as="points">
              <mxPoint x="2030" y="1080" />
              <mxPoint x="1786" y="1080" />
            </Array>
          </mxGeometry>
        </mxCell>
        <mxCell id="lwBPACdgoQQIhiUgGmdA-69" value="номер не подходит" style="edgeLabel;html=1;align=center;verticalAlign=middle;resizable=0;points=[];" vertex="1" connectable="0" parent="lwBPACdgoQQIhiUgGmdA-68">
          <mxGeometry x="0.0071" y="-2" relative="1" as="geometry">
            <mxPoint as="offset" />
          </mxGeometry>
        </mxCell>
        <mxCell id="lwBPACdgoQQIhiUgGmdA-76" value="Оплатить сразу&amp;nbsp;" style="rounded=1;whiteSpace=wrap;html=1;" vertex="1" parent="1">
          <mxGeometry x="1900" y="605" width="96" height="45" as="geometry" />
        </mxCell>
        <mxCell id="lwBPACdgoQQIhiUgGmdA-77" value="оплатить при заезде" style="rounded=1;whiteSpace=wrap;html=1;" vertex="1" parent="1">
          <mxGeometry x="2270" y="600" width="120" height="45" as="geometry" />
        </mxCell>
        <mxCell id="lwBPACdgoQQIhiUgGmdA-78" value="Выбрать способ оплаты" style="rounded=1;whiteSpace=wrap;html=1;" vertex="1" parent="1">
          <mxGeometry x="2096" y="681.5" width="96" height="45" as="geometry" />
        </mxCell>
        <mxCell id="lwBPACdgoQQIhiUgGmdA-79" value="" style="endArrow=classic;html=1;rounded=0;exitX=0;exitY=0.5;exitDx=0;exitDy=0;" edge="1" parent="1" source="lwBPACdgoQQIhiUgGmdA-78" target="lwBPACdgoQQIhiUgGmdA-76">
          <mxGeometry width="50" height="50" relative="1" as="geometry">
            <mxPoint x="2050" y="700" as="sourcePoint" />
            <mxPoint x="2100" y="650" as="targetPoint" />
          </mxGeometry>
        </mxCell>
        <mxCell id="lwBPACdgoQQIhiUgGmdA-88" value="онлайн оплата" style="edgeLabel;html=1;align=center;verticalAlign=middle;resizable=0;points=[];" vertex="1" connectable="0" parent="lwBPACdgoQQIhiUgGmdA-79">
          <mxGeometry x="-0.0382" relative="1" as="geometry">
            <mxPoint as="offset" />
          </mxGeometry>
        </mxCell>
        <mxCell id="lwBPACdgoQQIhiUgGmdA-80" value="" style="endArrow=classic;html=1;rounded=0;exitX=1;exitY=0.5;exitDx=0;exitDy=0;" edge="1" parent="1" source="lwBPACdgoQQIhiUgGmdA-78" target="lwBPACdgoQQIhiUgGmdA-77">
          <mxGeometry width="50" height="50" relative="1" as="geometry">
            <mxPoint x="2050" y="700" as="sourcePoint" />
            <mxPoint x="2100" y="650" as="targetPoint" />
          </mxGeometry>
        </mxCell>
        <mxCell id="lwBPACdgoQQIhiUgGmdA-89" value="оплата по факту&lt;div&gt;&amp;nbsp;на месте&lt;/div&gt;" style="edgeLabel;html=1;align=center;verticalAlign=middle;resizable=0;points=[];" vertex="1" connectable="0" parent="lwBPACdgoQQIhiUgGmdA-80">
          <mxGeometry x="-0.1974" y="-2" relative="1" as="geometry">
            <mxPoint x="11" y="-6" as="offset" />
          </mxGeometry>
        </mxCell>
        <mxCell id="lwBPACdgoQQIhiUgGmdA-81" value="" style="endArrow=classic;html=1;rounded=0;exitX=0.75;exitY=0;exitDx=0;exitDy=0;entryX=0;entryY=1;entryDx=0;entryDy=0;" edge="1" parent="1" source="lwBPACdgoQQIhiUgGmdA-76" target="lwBPACdgoQQIhiUgGmdA-63">
          <mxGeometry width="50" height="50" relative="1" as="geometry">
            <mxPoint x="2100" y="610" as="sourcePoint" />
            <mxPoint x="2150" y="560" as="targetPoint" />
          </mxGeometry>
        </mxCell>
        <mxCell id="lwBPACdgoQQIhiUgGmdA-82" value="" style="endArrow=classic;html=1;rounded=0;exitX=0.305;exitY=-0.036;exitDx=0;exitDy=0;exitPerimeter=0;entryX=1;entryY=1;entryDx=0;entryDy=0;" edge="1" parent="1" source="lwBPACdgoQQIhiUgGmdA-77" target="lwBPACdgoQQIhiUgGmdA-63">
          <mxGeometry width="50" height="50" relative="1" as="geometry">
            <mxPoint x="2100" y="610" as="sourcePoint" />
            <mxPoint x="2150" y="560" as="targetPoint" />
          </mxGeometry>
        </mxCell>
        <mxCell id="lwBPACdgoQQIhiUgGmdA-83" value="" style="endArrow=classic;html=1;rounded=0;entryX=0.987;entryY=0.59;entryDx=0;entryDy=0;exitX=0;exitY=0.5;exitDx=0;exitDy=0;entryPerimeter=0;" edge="1" parent="1" source="lwBPACdgoQQIhiUgGmdA-63" target="lwBPACdgoQQIhiUgGmdA-23">
          <mxGeometry width="50" height="50" relative="1" as="geometry">
            <mxPoint x="1880" y="650" as="sourcePoint" />
            <mxPoint x="1930" y="600" as="targetPoint" />
            <Array as="points">
              <mxPoint x="1870" y="547" />
              <mxPoint x="1870" y="635" />
            </Array>
          </mxGeometry>
        </mxCell>
        <mxCell id="lwBPACdgoQQIhiUgGmdA-84" value="бронь сделана" style="edgeLabel;html=1;align=center;verticalAlign=middle;resizable=0;points=[];" vertex="1" connectable="0" parent="lwBPACdgoQQIhiUgGmdA-83">
          <mxGeometry x="0.0984" y="-1" relative="1" as="geometry">
            <mxPoint as="offset" />
          </mxGeometry>
        </mxCell>
        <mxCell id="lwBPACdgoQQIhiUgGmdA-91" value="" style="endArrow=classic;html=1;rounded=0;exitX=0.106;exitY=-0.025;exitDx=0;exitDy=0;entryX=0.5;entryY=1;entryDx=0;entryDy=0;exitPerimeter=0;" edge="1" parent="1" source="lwBPACdgoQQIhiUgGmdA-31" target="lwBPACdgoQQIhiUgGmdA-26">
          <mxGeometry width="50" height="50" relative="1" as="geometry">
            <mxPoint x="1760" y="670" as="sourcePoint" />
            <mxPoint x="1810" y="620" as="targetPoint" />
          </mxGeometry>
        </mxCell>
      </root>
    </mxGraphModel>
  </diagram>
</mxfile>
